<svg xmlns="http://www.w3.org/2000/svg" viewBox="0 0 352.16 110.69"><defs><style>.cls-1{fill:#fff;}.cls-2{fill:#ed1c24;}</style></defs><g id="Layer_2" data-name="Layer 2"><g id="Layer_1-2" data-name="Layer 1"><polygon class="cls-1" points="15.32 47.61 18.82 47.61 18.82 37.39 34.14 11.19 30.26 11.19 17.08 33.29 3.98 11.36 3.88 11.19 0 11.19 15.32 37.39 15.32 47.61"/><polygon class="cls-1" points="66.07 44.13 40.5 44.13 40.5 31.54 64.32 31.54 64.32 28.14 40.5 28.14 40.5 14.57 66.07 14.57 66.07 11.14 37.08 11.14 37.08 47.56 66.07 47.56 66.07 44.13"/><polygon class="cls-1" points="100.12 44.13 74.56 44.13 74.56 31.54 98.38 31.54 98.38 28.14 74.56 28.14 74.56 14.57 100.12 14.57 100.12 11.14 71.13 11.14 71.13 47.56 100.12 47.56 100.12 44.13"/><path class="cls-1" d="M141.46,42.24a17.57,17.57,0,0,0,5.33-12.84,17.64,17.64,0,0,0-5.33-12.86,17.6,17.6,0,0,0-12.86-5.35H113V47.56H128.6A17.65,17.65,0,0,0,141.46,42.24ZM128.6,44.16H116.47V14.59H128.6A14.25,14.25,0,0,1,139,18.94a14.37,14.37,0,0,1,4.33,10.46A14.27,14.27,0,0,1,139,39.83,14.27,14.27,0,0,1,128.6,44.16Z"/><path class="cls-1" d="M169.16,49a19,19,0,0,0,11.29-3.64,19.3,19.3,0,0,0,7-9.23l.16-.46H184l-.09.21a16,16,0,0,1-5.83,7,16.08,16.08,0,0,1-25-12.1h35.54l.07-1.31a17.87,17.87,0,0,0-.1-1.81A19,19,0,0,0,182.36,15a19.49,19.49,0,0,0-27,.58A18.89,18.89,0,0,0,149.6,29.4a18.89,18.89,0,0,0,5.72,13.81A19,19,0,0,0,169.16,49Zm0-35.69a16.11,16.11,0,0,1,16,14h-32a16.13,16.13,0,0,1,16-14Z"/><path class="cls-1" d="M194.49,25.4a19.42,19.42,0,0,0,3.44,1.94c.55.23,1.19.49,1.91.77l1.92.76a36,36,0,0,1,7.45,3.53,7.07,7.07,0,0,1,3.18,6,6.4,6.4,0,0,1-2.11,4.92,9.73,9.73,0,0,1-6.82,2.26c-3.17,0-6.6-1.17-10.19-3.49l-.28-.19-1.87,2.87.28.18c4.17,2.69,8.23,4.06,12.06,4.06s7.06-1.14,9.33-3.37a9.8,9.8,0,0,0,3-7.24,10.21,10.21,0,0,0-4.23-8.42,20.27,20.27,0,0,0-4.12-2.41c-.67-.31-1.42-.63-2.24-1L203,25.69a34,34,0,0,1-6.35-2.94,4.34,4.34,0,0,1-2.18-3.62,5.08,5.08,0,0,1,3.49-5,11.51,11.51,0,0,1,2.63-.7l1-.1h.57a23,23,0,0,1,6.85.94,12.61,12.61,0,0,1,1.64.62l.46.25h0l.27.27,1.81-2.58.34-.53H213l-.14-.07a5.14,5.14,0,0,0-.54-.32,13.74,13.74,0,0,0-2.07-.82,25.62,25.62,0,0,0-8.13-1.19,13.23,13.23,0,0,0-7,1.87A8.17,8.17,0,0,0,191,19.13,7.52,7.52,0,0,0,194.49,25.4Z"/><rect class="cls-1" x="219.75" y="11.19" width="3.43" height="36.37"/><path class="cls-1" d="M246.67,9.82a19,19,0,0,0-13.83,5.72,19,19,0,0,0-5.73,13.83,18.92,18.92,0,0,0,5.73,13.82,19.43,19.43,0,0,0,23.57,3.1,19.32,19.32,0,0,0,6.37-5.89v1.44A15.42,15.42,0,0,1,258.05,53a16.25,16.25,0,0,1-22.81,0,20.22,20.22,0,0,1-1.86-2.24l-.21-.29-2.71,2.12.19.26A19.58,19.58,0,0,0,266.2,42V28.78a18.07,18.07,0,0,0-5.8-13.47A19.27,19.27,0,0,0,246.67,9.82Zm0,3.4a15.61,15.61,0,0,1,11.26,4.6,15.69,15.69,0,0,1,4.85,11.1v.87a15.66,15.66,0,0,1-4.85,11.11,16.08,16.08,0,0,1-22.66-.12,15.65,15.65,0,0,1-4.73-11.41A15.58,15.58,0,0,1,235.27,18,15.56,15.56,0,0,1,246.67,13.22Z"/><path class="cls-1" d="M287,13.12A13,13,0,0,1,296.43,17a13,13,0,0,1,3.95,9.49V47.61h3.4V26.53a16.36,16.36,0,0,0-4.92-11.92,16.85,16.85,0,0,0-23.8,0,16.36,16.36,0,0,0-4.92,11.92V47.61h3.42V26.53A13,13,0,0,1,277.49,17,13,13,0,0,1,287,13.12Z"/><path class="cls-1" d="M27.82,93.38a12.54,12.54,0,0,0,2.7-7.88,13.16,13.16,0,0,0-1-5,13.1,13.1,0,0,0-6.86-6.85,12.72,12.72,0,0,0-5-1H2.12V109H5.55V98.36h12l8.72,10.5.1.12h4.43l-9.31-11.2A12.69,12.69,0,0,0,27.82,93.38ZM5.55,76H17.66a9.47,9.47,0,0,1,3.67.74,9.68,9.68,0,0,1,3,2,9.79,9.79,0,0,1,2,3,9.33,9.33,0,0,1,.75,3.69,9.22,9.22,0,0,1-.75,3.66,9.67,9.67,0,0,1-2,3A9.47,9.47,0,0,1,17.66,95H5.55Z"/><path class="cls-1" d="M66.6,76.43a19.49,19.49,0,0,0-27,.58A19.56,19.56,0,0,0,53.4,110.38a19,19,0,0,0,11.29-3.64,19.25,19.25,0,0,0,7-9.23l.17-.45H68.25l-.09.2a16,16,0,0,1-5.83,7,16.09,16.09,0,0,1-25-12.1H72.89L73,90.82c0-.51,0-1.12-.09-1.8A19,19,0,0,0,66.6,76.43ZM53.4,74.69a16.11,16.11,0,0,1,16,14h-32a16.11,16.11,0,0,1,16-14Z"/><path class="cls-1" d="M94.24,71.11A16.82,16.82,0,0,0,77.4,88V109h3.43V88a13.39,13.39,0,0,1,22.87-9.48,12.92,12.92,0,0,1,4,9.48V109h3.4V88A16.83,16.83,0,0,0,94.24,71.11Z"/><path class="cls-1" d="M135.05,71.26a19.55,19.55,0,0,0-13.84,33.37A19.54,19.54,0,1,0,148.86,77,18.87,18.87,0,0,0,135.05,71.26Zm0,35.69a16.13,16.13,0,0,1-11.41-27.53,16.13,16.13,0,0,1,22.82,22.81A15.63,15.63,0,0,1,135.05,107Z"/><polygon class="cls-1" points="190.63 72.61 174.46 103.27 158.39 72.8 158.29 72.61 154.46 72.61 174.16 110.13 174.46 110.69 194.47 72.61 190.63 72.61"/><path class="cls-1" d="M213.88,71.26A19.57,19.57,0,0,0,200,104.66a19,19,0,0,0,13.84,5.72,19.29,19.29,0,0,0,9.77-2.62,19.75,19.75,0,0,0,6.36-5.94V109h3.42V90.82a19.61,19.61,0,0,0-19.55-19.56Zm0,3.43a16.14,16.14,0,0,1,11.41,27.54,16.13,16.13,0,0,1-22.82-22.81A15.6,15.6,0,0,1,213.88,74.69Z"/><path class="cls-1" d="M242.46,66.19H239V95.87a14.49,14.49,0,0,0,22.21,12.21l.16-.1v-4.42l-.57.51a11,11,0,0,1-18.35-8.2V76h18.92V72.62H242.46Z"/><rect class="cls-1" x="266.95" y="72.62" width="3.43" height="36.37"/><path class="cls-1" d="M294.38,71.26a19.55,19.55,0,0,0-13.84,33.37A19.54,19.54,0,1,0,308.19,77,18.87,18.87,0,0,0,294.38,71.26Zm0,35.69A16.13,16.13,0,0,1,283,79.42a16.13,16.13,0,0,1,22.82,22.81A15.65,15.65,0,0,1,294.38,107Z"/><path class="cls-1" d="M347.1,76A16.82,16.82,0,0,0,318.38,88V109h3.43V88a13.41,13.41,0,0,1,26.81,0V109H352V88A16.33,16.33,0,0,0,347.1,76Z"/><path class="cls-1" d="M349.75,30.89a37.45,37.45,0,0,1-3.63,8.29,8.73,8.73,0,0,0,.77.87,49.08,49.08,0,0,0,5.27,5.07L350,47.83a51.24,51.24,0,0,1-5.84-5.68c-1.58,2.15-4.25,5.68-10.13,5.68-7.37,0-11.67-5.47-11.67-10.7,0-5.83,4.65-8.55,8.6-10.75-3.64-4.71-4.05-6.7-4.05-8.14A8.3,8.3,0,0,1,335.37,10a7.85,7.85,0,0,1,8.19,8c0,4-3.64,6.91-7.88,9.06.1.15.61.77.71.87,2.41,3,2.92,3.58,7.37,8.8a41.11,41.11,0,0,0,2.82-6.45Zm-24,5.68c0,4,3.38,8.4,8,8.4s7.27-3.95,8.14-5.22c-1.94-2-7.42-8.55-9.26-11.06C328.92,30.79,325.74,32.78,325.74,36.57Zm14.49-18.74a4.85,4.85,0,0,0-4.81-5,5.11,5.11,0,0,0-5.17,5c0,2,1.23,3.69,3,6.09.2.26.56.72.61.82C337.16,23,340.23,21.11,340.23,17.83Z"/><circle class="cls-2" cx="221.49" cy="3.84" r="3.84"/><circle class="cls-2" cx="268.58" cy="65.19" r="3.84"/></g></g></svg>